<svg width="1920" height="1706" viewBox="0 0 1920 1706" fill="none" xmlns="http://www.w3.org/2000/svg">
<g filter="url(#filter0_f_28_33)">
<path d="M885 531C885 838.07 636.07 1087 329 1087C21.9297 1087 -227 838.07 -227 531C-227 223.93 21.9297 -25 329 -25C636.07 -25 885 223.93 885 531Z" fill="#33324F"/>
<path d="M1537 800C1537 1107.07 1288.07 1356 981 1356C673.93 1356 425 1107.07 425 800C425 492.93 673.93 244 981 244C1288.07 244 1537 492.93 1537 800Z" fill="#18181E"/>
<path d="M2276 772C2276 1079.07 2027.07 1328 1720 1328C1412.93 1328 1164 1079.07 1164 772C1164 464.93 1412.93 216 1720 216C2027.07 216 2276 464.93 2276 772Z" fill="#18181E"/>
<path d="M1769 365C1769 728.403 1474.4 1023 1111 1023C747.597 1023 453 728.403 453 365C453 1.59665 747.597 -293 1111 -293C1474.4 -293 1769 1.59665 1769 365Z" fill="#33324F"/>
<path d="M1104 269C1104 492.675 922.675 674 699 674C475.325 674 294 492.675 294 269C294 45.3247 475.325 -136 699 -136C922.675 -136 1104 45.3247 1104 269Z" fill="#18181E"/>
<path d="M634 115C634 359.662 435.662 558 191 558C-53.6621 558 -252 359.662 -252 115C-252 -129.662 -53.6621 -328 191 -328C435.662 -328 634 -129.662 634 115Z" fill="#18181E"/>
</g>
<defs>
<filter id="filter0_f_28_33" x="-602" y="-678" width="3228" height="2384" filterUnits="userSpaceOnUse" color-interpolation-filters="sRGB">
<feFlood flood-opacity="0" result="BackgroundImageFix"/>
<feBlend mode="normal" in="SourceGraphic" in2="BackgroundImageFix" result="shape"/>
<feGaussianBlur stdDeviation="175" result="effect1_foregroundBlur_28_33"/>
</filter>
</defs>
</svg>
