<svg width="16" height="16" viewBox="0 0 16 16" fill="none" xmlns="http://www.w3.org/2000/svg">
<path d="M5.42467 4.14831C5.61304 3.22671 6.92985 3.22671 7.11822 4.14831L7.80718 7.51912C7.87652 7.85836 8.14164 8.12348 8.48088 8.19282L11.8517 8.88178C12.7733 9.07015 12.7733 10.387 11.8517 10.5753L8.48088 11.2643C8.14164 11.3336 7.87652 11.5987 7.80718 11.938L7.11822 15.3088C6.92985 16.2304 5.61304 16.2304 5.42467 15.3088L4.73571 11.938C4.66637 11.5987 4.40125 11.3336 4.06201 11.2643L0.691204 10.5753C-0.230401 10.387 -0.230401 9.07015 0.691204 8.88178L4.06201 8.19282C4.40125 8.12348 4.66637 7.85836 4.73571 7.51912L5.42467 4.14831Z" fill="#006AF6"/>
<path d="M12.3389 0.691203C12.5273 -0.230401 13.8441 -0.230401 14.0324 0.691204L14.1347 1.1916C14.204 1.53084 14.4692 1.79595 14.8084 1.86529L15.3088 1.96757C16.2304 2.15594 16.2304 3.47274 15.3088 3.66111L14.8084 3.76339C14.4692 3.83272 14.204 4.09784 14.1347 4.43708L14.0324 4.93748C13.8441 5.85908 12.5273 5.85908 12.3389 4.93748L12.2366 4.43708C12.1673 4.09784 11.9022 3.83272 11.5629 3.76339L11.0625 3.66111C10.1409 3.47274 10.1409 2.15594 11.0625 1.96757L11.5629 1.86529C11.9022 1.79595 12.1673 1.53084 12.2366 1.1916L12.3389 0.691203Z" fill="#006AF6"/>
</svg>
