<svg width="24" height="16" viewBox="0 0 24 16" fill="none" xmlns="http://www.w3.org/2000/svg">
<path d="M11.7333 0C6.4 0 1.84533 3.31733 0 8C1.84533 12.6827 6.4 16 11.7333 16C17.0667 16 21.6213 12.6827 23.4667 8C21.6213 3.31733 17.0667 0 11.7333 0ZM11.7333 13.3333C8.78933 13.3333 6.4 10.944 6.4 8C6.4 5.056 8.78933 2.66667 11.7333 2.66667C14.6773 2.66667 17.0667 5.056 17.0667 8C17.0667 10.944 14.6773 13.3333 11.7333 13.3333ZM11.7333 4.8C9.96267 4.8 8.53333 6.22933 8.53333 8C8.53333 9.77067 9.96267 11.2 11.7333 11.2C13.504 11.2 14.9333 9.77067 14.9333 8C14.9333 6.22933 13.504 4.8 11.7333 4.8Z" fill="#3A975A"/>
</svg>
