<svg width="1310" height="191" viewBox="0 0 1310 191" fill="none" xmlns="http://www.w3.org/2000/svg">
<g filter="url(#filter0_b_21_479)">
<path d="M299.79 7.97402V116.906H243.166L299.79 151.769V182.267H241.417L207.441 160.477L184.351 146.097L183.477 145.222L161.262 131.275L149.933 124.307L138.604 116.896H66.732V182.257H8.35952V7.96399H299.769L299.79 7.97402ZM241.849 73.3352V58.9557H66.742V73.3352H241.849ZM317.2 182.277V7.98409H375.13V182.277H317.2ZM626.472 7.97402L683.97 29.7644V182.277H392.56V7.98409H626.472V7.97402ZM625.598 116.916V73.3452H450.49V116.916H625.598ZM759.753 58.9557V131.285H934.86V116.906H832.057V73.3352H992.79V182.267H701.38V7.97402H992.79V58.9557H759.753ZM1068.14 73.3352H1301.62V116.906H1068.14V131.285H1301.62V182.267H1010.21V7.97402H1301.62V58.9557H1068.14V73.3352Z" fill="url(#paint0_linear_21_479)"/>
<path d="M299.79 7.97406V116.906H243.166L299.79 151.769V182.267H241.417L207.441 160.477L184.351 146.097L183.477 145.222L161.262 131.275L149.933 124.307L138.604 116.896H66.732V182.257H8.35952V7.96403H299.769M66.742 73.3352H241.849V58.9557H66.742V73.3352ZM300.795 6.96851H7.37444V183.273H67.7573V117.911H138.323L149.4 125.151L160.749 132.14L182.864 146.017L183.658 146.811L183.738 146.892L183.839 146.952L206.928 161.331L240.894 183.112L241.146 183.273H300.815V151.205L300.332 150.914L246.735 117.911H300.815V6.96851H300.795ZM67.7472 59.9613H240.844V72.3297H67.7472V59.9613Z" fill="#7A7ACE"/>
<path d="M375.14 7.97406V182.267H317.21V7.97406H375.14ZM376.145 6.96851H316.205V183.273H376.145V6.96851Z" fill="#7A7ACE"/>
<path d="M626.472 7.97406L683.97 29.7645V182.277H392.56V7.98413H626.472M450.49 116.916H625.598V73.3453H450.49V116.916ZM626.653 6.96851H391.555V183.273H684.975V29.0606L684.322 28.8192L626.824 7.02887L626.653 6.96851ZM451.496 74.3408H624.592V115.9H451.496V74.3408Z" fill="#7A7ACE"/>
<path d="M992.8 7.97406V58.9557H759.763V131.285H934.87V116.906H832.068V73.3352H992.8V182.267H701.39V7.97406H992.8ZM993.806 6.96851H700.385V183.273H993.806V72.3297H831.062V117.911H933.865V130.28H760.768V59.9613H993.806V6.96851Z" fill="#7A7ACE"/>
<path d="M1301.62 7.97406V58.9557H1068.14V73.3352H1301.62V116.906H1068.14V131.285H1301.62V182.267H1010.21V7.97406H1301.62ZM1302.63 6.96851H1009.21V183.273H1302.63V130.28H1069.15V117.911H1302.63V72.3297H1069.15V59.9613H1302.63V6.96851Z" fill="#7A7ACE"/>
<path opacity="0.3" d="M66.7521 7.97406H8.37965V58.9557H66.7521V7.97406Z" fill="#7A7ACE"/>
<path d="M15.3457 1.00556V14.9426H1.41353V1.00556H15.3457ZM16.3509 0H0.408325V15.9481H16.3509V0Z" fill="#7A7ACE"/>
<path d="M15.3457 1.00555H1.41353V14.9426H15.3457V1.00555Z" fill="black"/>
<path d="M15.3457 175.309V189.246H1.41353V175.309H15.3457ZM16.3509 174.303H0.408318V190.251H16.3509V174.303Z" fill="#7A7ACE"/>
<path d="M15.3457 175.309H1.41353V189.246H15.3457V175.309Z" fill="black"/>
<path d="M73.7182 175.309V189.246H59.786V175.309H73.7182ZM74.7234 174.303H58.7808V190.251H74.7234V174.303Z" fill="#7A7ACE"/>
<path d="M73.7081 175.309H59.7759V189.246H73.7081V175.309Z" fill="black"/>
<path d="M248.825 175.309V189.246H234.893V175.309H248.825ZM249.831 174.303H233.888V190.251H249.831V174.303Z" fill="#7A7ACE"/>
<path d="M248.815 175.309H234.883V189.246H248.815V175.309Z" fill="black"/>
<path d="M306.756 175.309V189.246H292.823V175.309H306.756ZM307.761 174.303H291.818V190.251H307.761V174.303Z" fill="#7A7ACE"/>
<path d="M306.756 175.309H292.823V189.246H306.756V175.309Z" fill="black"/>
<path d="M306.756 144.8V158.737H292.823V144.8H306.756ZM307.761 143.794H291.818V159.743H307.761V143.794Z" fill="#7A7ACE"/>
<path d="M306.756 144.8H292.823V158.737H306.756V144.8Z" fill="black"/>
<path d="M250.132 109.937V123.874H236.2V109.937H250.132ZM251.137 108.932H235.195V124.88H251.137V108.932Z" fill="#7A7ACE"/>
<path d="M250.122 109.937H236.19V123.874H250.122V109.937Z" fill="black"/>
<path d="M248.825 66.3666V80.3037H234.893V66.3666H248.825ZM249.831 65.3611H233.888V81.3092H249.831V65.3611Z" fill="#7A7ACE"/>
<path d="M248.815 66.3666H234.883V80.3037H248.815V66.3666Z" fill="black"/>
<path d="M248.825 51.9872V65.9242H234.893V51.9872H248.825ZM249.831 50.9817H233.888V66.9298H249.831V50.9817Z" fill="#7A7ACE"/>
<path d="M248.815 51.9872H234.883V65.9242H248.815V51.9872Z" fill="black"/>
<path d="M73.7182 51.9872V65.9242H59.786V51.9872H73.7182ZM74.7234 50.9817H58.7808V66.9298H74.7234V50.9817Z" fill="#7A7ACE"/>
<path d="M73.7081 51.9872H59.7759V65.9242H73.7081V51.9872Z" fill="black"/>
<path d="M73.7182 66.3666V80.3037H59.786V66.3666H73.7182ZM74.7234 65.3611H58.7808V81.3092H74.7234V65.3611Z" fill="#7A7ACE"/>
<path d="M73.7081 66.3666H59.7759V80.3037H73.7081V66.3666Z" fill="black"/>
<path d="M306.756 109.937V123.874H292.823V109.937H306.756ZM307.761 108.932H291.818V124.88H307.761V108.932Z" fill="#7A7ACE"/>
<path d="M306.756 109.937H292.823V123.874H306.756V109.937Z" fill="black"/>
<path d="M306.756 1.00556V14.9426H292.823V1.00556H306.756ZM307.761 0H291.818V15.9481H307.761V0Z" fill="#7A7ACE"/>
<path d="M306.756 1.00555H292.823V14.9426H306.756V1.00555Z" fill="black"/>
<path d="M324.176 1.00556V14.9426H310.244V1.00556H324.176ZM325.181 0H309.239V15.9481H325.181V0Z" fill="#7A7ACE"/>
<path d="M324.166 1.00555H310.234V14.9426H324.166V1.00555Z" fill="black"/>
<path d="M382.106 1.00556V14.9426H368.174V1.00556H382.106ZM383.111 0H367.169V15.9481H383.111V0Z" fill="#7A7ACE"/>
<path d="M382.106 1.00555H368.174V14.9426H382.106V1.00555Z" fill="black"/>
<path d="M399.526 1.00556V14.9426H385.594V1.00556H399.526ZM400.531 0H384.589V15.9481H400.531V0Z" fill="#7A7ACE"/>
<path d="M399.516 1.00555H385.584V14.9426H399.516V1.00555Z" fill="black"/>
<path d="M399.526 175.309V189.246H385.594V175.309H399.526ZM400.531 174.303H384.589V190.251H400.531V174.303Z" fill="#7A7ACE"/>
<path d="M399.516 175.309H385.584V189.246H399.516V175.309Z" fill="black"/>
<path d="M690.936 175.309V189.246H677.004V175.309H690.936ZM691.941 174.303H675.999V190.251H691.941V174.303Z" fill="#7A7ACE"/>
<path d="M690.926 175.309H676.994V189.246H690.926V175.309Z" fill="black"/>
<path d="M999.766 175.309V189.246H985.834V175.309H999.766ZM1000.77 174.303H984.829V190.251H1000.77V174.303Z" fill="#7A7ACE"/>
<path d="M999.756 175.309H985.824V189.246H999.756V175.309Z" fill="black"/>
<path d="M1017.18 175.309V189.246H1003.24V175.309H1017.18ZM1018.18 174.303H1002.24V190.251H1018.18V174.303Z" fill="#7A7ACE"/>
<path d="M1017.18 175.309H1003.24V189.246H1017.18V175.309Z" fill="black"/>
<path d="M1308.59 175.309V189.246H1294.65V175.309H1308.59ZM1309.59 174.303H1293.65V190.251H1309.59V174.303Z" fill="#7A7ACE"/>
<path d="M1308.59 175.309H1294.65V189.246H1308.59V175.309Z" fill="black"/>
<path d="M1308.59 124.317V138.254H1294.65V124.317H1308.59ZM1309.59 123.311H1293.65V139.259H1309.59V123.311Z" fill="#7A7ACE"/>
<path d="M1308.59 124.317H1294.65V138.254H1308.59V124.317Z" fill="black"/>
<path d="M1308.59 109.937V123.874H1294.65V109.937H1308.59ZM1309.59 108.932H1293.65V124.88H1309.59V108.932Z" fill="#7A7ACE"/>
<path d="M1308.59 109.937H1294.65V123.874H1308.59V109.937Z" fill="black"/>
<path d="M1308.59 66.3666V80.3037H1294.65V66.3666H1308.59ZM1309.59 65.3611H1293.65V81.3092H1309.59V65.3611Z" fill="#7A7ACE"/>
<path d="M1308.59 66.3666H1294.65V80.3037H1308.59V66.3666Z" fill="black"/>
<path d="M1308.59 51.9872V65.9242H1294.65V51.9872H1308.59ZM1309.59 50.9817H1293.65V66.9298H1309.59V50.9817Z" fill="#7A7ACE"/>
<path d="M1308.59 51.9872H1294.65V65.9242H1308.59V51.9872Z" fill="black"/>
<path d="M1308.59 1.00556V14.9426H1294.65V1.00556H1308.59ZM1309.59 0H1293.65V15.9481H1309.59V0Z" fill="#7A7ACE"/>
<path d="M1308.59 1.00555H1294.65V14.9426H1308.59V1.00555Z" fill="black"/>
<path d="M999.766 66.3666V80.3037H985.834V66.3666H999.766ZM1000.77 65.3611H984.829V81.3092H1000.77V65.3611Z" fill="#7A7ACE"/>
<path d="M999.756 66.3666H985.824V80.3037H999.756V66.3666Z" fill="black"/>
<path d="M1075.12 51.9872V65.9242H1061.18V51.9872H1075.12ZM1076.12 50.9817H1060.18V66.9298H1076.12V50.9817Z" fill="#7A7ACE"/>
<path d="M1075.11 51.9872H1061.17V65.9242H1075.11V51.9872Z" fill="black"/>
<path d="M1075.12 66.3666V80.3037H1061.18V66.3666H1075.12ZM1076.12 65.3611H1060.18V81.3092H1076.12V65.3611Z" fill="#7A7ACE"/>
<path d="M1075.11 66.3666H1061.17V80.3037H1075.11V66.3666Z" fill="black"/>
<path d="M1075.12 109.937V123.874H1061.18V109.937H1075.12ZM1076.12 108.932H1060.18V124.88H1076.12V108.932Z" fill="#7A7ACE"/>
<path d="M1075.11 109.937H1061.17V123.874H1075.11V109.937Z" fill="black"/>
<path d="M1075.12 124.317V138.254H1061.18V124.317H1075.12ZM1076.12 123.311H1060.18V139.259H1076.12V123.311Z" fill="#7A7ACE"/>
<path d="M1075.11 124.317H1061.17V138.254H1075.11V124.317Z" fill="black"/>
<path d="M1017.18 1.00556V14.9426H1003.24V1.00556H1017.18ZM1018.18 0H1002.24V15.9481H1018.18V0Z" fill="#7A7ACE"/>
<path d="M1017.18 1.00555H1003.24V14.9426H1017.18V1.00555Z" fill="black"/>
<path d="M839.034 66.3666V80.3037H825.101V66.3666H839.034ZM840.039 65.3611H824.096V81.3092H840.039V65.3611Z" fill="#7A7ACE"/>
<path d="M839.023 66.3666H825.091V80.3037H839.023V66.3666Z" fill="black"/>
<path d="M941.826 109.937V123.874H927.894V109.937H941.826ZM942.831 108.932H926.889V124.88H942.831V108.932Z" fill="#7A7ACE"/>
<path d="M941.826 109.937H927.894V123.874H941.826V109.937Z" fill="black"/>
<path d="M941.826 124.317V138.254H927.894V124.317H941.826ZM942.831 123.311H926.889V139.259H942.831V123.311Z" fill="#7A7ACE"/>
<path d="M941.826 124.317H927.894V138.254H941.826V124.317Z" fill="black"/>
<path d="M839.034 109.937V123.874H825.101V109.937H839.034ZM840.039 108.932H824.096V124.88H840.039V108.932Z" fill="#7A7ACE"/>
<path d="M839.023 109.937H825.091V123.874H839.023V109.937Z" fill="black"/>
<path d="M766.719 124.317V138.254H752.787V124.317H766.719ZM767.724 123.311H751.781V139.259H767.724V123.311Z" fill="#7A7ACE"/>
<path d="M766.719 124.317H752.787V138.254H766.719V124.317Z" fill="black"/>
<path d="M766.719 51.9872V65.9242H752.787V51.9872H766.719ZM767.724 50.9817H751.781V66.9298H767.724V50.9817Z" fill="#7A7ACE"/>
<path d="M766.719 51.9872H752.787V65.9242H766.719V51.9872Z" fill="black"/>
<path d="M999.766 1.00556V14.9426H985.834V1.00556H999.766ZM1000.77 0H984.829V15.9481H1000.77V0Z" fill="#7A7ACE"/>
<path d="M999.756 1.00555H985.824V14.9426H999.756V1.00555Z" fill="black"/>
<path d="M690.936 22.796V36.7329H677.004V22.796H690.936ZM691.941 21.7904H675.999V37.7385H691.941V21.7904Z" fill="#7A7ACE"/>
<path d="M690.926 22.796H676.994V36.7329H690.926V22.796Z" fill="black"/>
<path d="M708.356 1.00556V14.9426H694.424V1.00556H708.356ZM709.362 0H693.419V15.9481H709.362V0Z" fill="#7A7ACE"/>
<path d="M708.346 1.00555H694.414V14.9426H708.346V1.00555Z" fill="black"/>
<path d="M708.356 175.309V189.246H694.424V175.309H708.356ZM709.362 174.303H693.419V190.251H709.362V174.303Z" fill="#7A7ACE"/>
<path d="M708.346 175.309H694.414V189.246H708.346V175.309Z" fill="black"/>
<path d="M633.438 1.00556V14.9426H619.506V1.00556H633.438ZM634.444 0H618.501V15.9481H634.444V0Z" fill="#7A7ACE"/>
<path d="M633.428 1.00555H619.496V14.9426H633.428V1.00555Z" fill="black"/>
<path d="M632.564 66.3666V80.3037H618.632V66.3666H632.564ZM633.569 65.3611H617.626V81.3092H633.569V65.3611Z" fill="#7A7ACE"/>
<path d="M632.564 66.3666H618.632V80.3037H632.564V66.3666Z" fill="black"/>
<path d="M632.564 109.937V123.874H618.632V109.937H632.564ZM633.569 108.932H617.626V124.88H633.569V108.932Z" fill="#7A7ACE"/>
<path d="M632.564 109.937H618.632V123.874H632.564V109.937Z" fill="black"/>
<path d="M457.456 109.937V123.874H443.524V109.937H457.456ZM458.462 108.932H442.519V124.88H458.462V108.932Z" fill="#7A7ACE"/>
<path d="M457.456 109.937H443.524V123.874H457.456V109.937Z" fill="black"/>
<path d="M457.456 66.3666V80.3037H443.524V66.3666H457.456ZM458.462 65.3611H442.519V81.3092H458.462V65.3611Z" fill="#7A7ACE"/>
<path d="M457.456 66.3666H443.524V80.3037H457.456V66.3666Z" fill="black"/>
<path d="M324.176 175.309V189.246H310.244V175.309H324.176ZM325.181 174.303H309.239V190.251H325.181V174.303Z" fill="#7A7ACE"/>
<path d="M324.166 175.309H310.234V189.246H324.166V175.309Z" fill="black"/>
<path d="M382.106 175.309V189.246H368.174V175.309H382.106ZM383.111 174.303H367.169V190.251H383.111V174.303Z" fill="#7A7ACE"/>
<path d="M382.106 175.309H368.174V189.246H382.106V175.309Z" fill="black"/>
</g>
<defs>
<filter id="filter0_b_21_479" x="-59.5917" y="-60" width="1429.18" height="310.251" filterUnits="userSpaceOnUse" color-interpolation-filters="sRGB">
<feFlood flood-opacity="0" result="BackgroundImageFix"/>
<feGaussianBlur in="BackgroundImageFix" stdDeviation="30"/>
<feComposite in2="SourceAlpha" operator="in" result="effect1_backgroundBlur_21_479"/>
<feBlend mode="normal" in="SourceGraphic" in2="effect1_backgroundBlur_21_479" result="shape"/>
</filter>
<linearGradient id="paint0_linear_21_479" x1="288.129" y1="462.123" x2="1022.12" y2="-271.619" gradientUnits="userSpaceOnUse">
<stop stop-color="#7A7ACE" stop-opacity="0.2"/>
<stop offset="0.42" stop-color="#7A7ACE" stop-opacity="0.19"/>
<stop offset="0.64" stop-color="#7A7ACE" stop-opacity="0.16"/>
<stop offset="0.8" stop-color="#7A7ACE" stop-opacity="0.11"/>
<stop offset="0.95" stop-color="#7A7ACE" stop-opacity="0.04"/>
<stop offset="1" stop-color="#7A7ACE" stop-opacity="0"/>
</linearGradient>
</defs>
</svg>
