<svg width="1920" height="242" viewBox="0 0 1920 242" fill="none" xmlns="http://www.w3.org/2000/svg">
<g clip-path="url(#clip0_41_196)">
<path opacity="0.2" d="M10.0609 0L11.3436 8.77828L20.1319 10.0609L11.3436 11.3436L10.0609 20.1319L8.77828 11.3436L0 10.0609L8.77828 8.77828L10.0609 0Z" fill="white"/>
<path opacity="0.2" d="M71.3786 0L72.6613 8.77828L81.4396 10.0609L72.6613 11.3436L71.3786 20.1319L70.096 11.3436L61.3177 10.0609L70.096 8.77828L71.3786 0Z" fill="white"/>
<path opacity="0.2" d="M132.696 0L133.979 8.77828L142.757 10.0609L133.979 11.3436L132.696 20.1319L131.414 11.3436L122.625 10.0609L131.414 8.77828L132.696 0Z" fill="white"/>
<path opacity="0.2" d="M194.004 0L195.287 8.77828L204.075 10.0609L195.287 11.3436L194.004 20.1319L192.721 11.3436L183.943 10.0609L192.721 8.77828L194.004 0Z" fill="white"/>
<path opacity="0.2" d="M255.322 0L256.604 8.77828L265.383 10.0609L256.604 11.3436L255.322 20.1319L254.039 11.3436L245.261 10.0609L254.039 8.77828L255.322 0Z" fill="white"/>
<path opacity="0.2" d="M316.639 0L317.922 8.77828L326.7 10.0609L317.922 11.3436L316.639 20.1319L315.357 11.3436L306.568 10.0609L315.357 8.77828L316.639 0Z" fill="white"/>
<path opacity="0.2" d="M377.947 0L379.23 8.77828L388.018 10.0609L379.23 11.3436L377.947 20.1319L376.664 11.3436L367.886 10.0609L376.664 8.77828L377.947 0Z" fill="white"/>
<path opacity="0.2" d="M439.265 0L440.547 8.77828L449.326 10.0609L440.547 11.3436L439.265 20.1319L437.982 11.3436L429.204 10.0609L437.982 8.77828L439.265 0Z" fill="white"/>
<path opacity="0.2" d="M500.582 0L501.865 8.77828L510.643 10.0609L501.865 11.3436L500.582 20.1319L499.3 11.3436L490.511 10.0609L499.3 8.77828L500.582 0Z" fill="white"/>
<path opacity="0.2" d="M561.89 0L563.173 8.77828L571.961 10.0609L563.173 11.3436L561.89 20.1319L560.617 11.3436L551.829 10.0609L560.617 8.77828L561.89 0Z" fill="white"/>
<path opacity="0.2" d="M623.208 0L624.49 8.77828L633.269 10.0609L624.49 11.3436L623.208 20.1319L621.925 11.3436L613.147 10.0609L621.925 8.77828L623.208 0Z" fill="white"/>
<path opacity="0.2" d="M684.525 0L685.808 8.77828L694.586 10.0609L685.808 11.3436L684.525 20.1319L683.243 11.3436L674.454 10.0609L683.243 8.77828L684.525 0Z" fill="white"/>
<path opacity="0.2" d="M745.833 0L747.116 8.77828L755.904 10.0609L747.116 11.3436L745.833 20.1319L744.56 11.3436L735.772 10.0609L744.56 8.77828L745.833 0Z" fill="white"/>
<path opacity="0.2" d="M807.151 0L808.433 8.77828L817.212 10.0609L808.433 11.3436L807.151 20.1319L805.868 11.3436L797.09 10.0609L805.868 8.77828L807.151 0Z" fill="white"/>
<path opacity="0.2" d="M868.468 0L869.751 8.77828L878.529 10.0609L869.751 11.3436L868.468 20.1319L867.186 11.3436L858.408 10.0609L867.186 8.77828L868.468 0Z" fill="white"/>
<path opacity="0.2" d="M929.776 0L931.059 8.77828L939.847 10.0609L931.059 11.3436L929.776 20.1319L928.504 11.3436L919.715 10.0609L928.504 8.77828L929.776 0Z" fill="white"/>
<path opacity="0.2" d="M991.094 0L992.377 8.77828L1001.15 10.0609L992.377 11.3436L991.094 20.1319L989.811 11.3436L981.033 10.0609L989.811 8.77828L991.094 0Z" fill="white"/>
<path opacity="0.2" d="M1052.41 0L1053.69 8.77828L1062.47 10.0609L1053.69 11.3436L1052.41 20.1319L1051.13 11.3436L1042.35 10.0609L1051.13 8.77828L1052.41 0Z" fill="white"/>
<path opacity="0.2" d="M1113.73 0L1115 8.77828L1123.79 10.0609L1115 11.3436L1113.73 20.1319L1112.45 11.3436L1103.66 10.0609L1112.45 8.77828L1113.73 0Z" fill="white"/>
<path opacity="0.2" d="M1175.04 0L1176.32 8.77828L1185.11 10.0609L1176.32 11.3436L1175.04 20.1319L1173.75 11.3436L1164.98 10.0609L1173.75 8.77828L1175.04 0Z" fill="white"/>
<path opacity="0.2" d="M1236.35 0L1237.64 8.77828L1246.42 10.0609L1237.64 11.3436L1236.35 20.1319L1235.07 11.3436L1226.29 10.0609L1235.07 8.77828L1236.35 0Z" fill="white"/>
<path opacity="0.2" d="M1297.67 0L1298.94 8.77828L1307.73 10.0609L1298.94 11.3436L1297.67 20.1319L1296.39 11.3436L1287.6 10.0609L1296.39 8.77828L1297.67 0Z" fill="white"/>
<path opacity="0.2" d="M1358.98 0L1360.26 8.77828L1369.05 10.0609L1360.26 11.3436L1358.98 20.1319L1357.7 11.3436L1348.92 10.0609L1357.7 8.77828L1358.98 0Z" fill="white"/>
<path opacity="0.2" d="M1420.3 0L1421.58 8.77828L1430.36 10.0609L1421.58 11.3436L1420.3 20.1319L1419.01 11.3436L1410.24 10.0609L1419.01 8.77828L1420.3 0Z" fill="white"/>
<path opacity="0.2" d="M1481.62 0L1482.9 8.77828L1491.68 10.0609L1482.9 11.3436L1481.62 20.1319L1480.33 11.3436L1471.54 10.0609L1480.33 8.77828L1481.62 0Z" fill="white"/>
<path opacity="0.2" d="M1542.92 0L1544.21 8.77828L1552.99 10.0609L1544.21 11.3436L1542.92 20.1319L1541.64 11.3436L1532.86 10.0609L1541.64 8.77828L1542.92 0Z" fill="white"/>
<path opacity="0.2" d="M1604.24 0L1605.52 8.77828L1614.3 10.0609L1605.52 11.3436L1604.24 20.1319L1602.96 11.3436L1594.18 10.0609L1602.96 8.77828L1604.24 0Z" fill="white"/>
<path opacity="0.2" d="M1665.56 0L1666.84 8.77828L1675.62 10.0609L1666.84 11.3436L1665.56 20.1319L1664.28 11.3436L1655.49 10.0609L1664.28 8.77828L1665.56 0Z" fill="white"/>
<path opacity="0.2" d="M1726.87 0L1728.15 8.77828L1736.94 10.0609L1728.15 11.3436L1726.87 20.1319L1725.58 11.3436L1716.81 10.0609L1725.58 8.77828L1726.87 0Z" fill="white"/>
<path opacity="0.2" d="M1788.18 0L1789.47 8.77828L1798.24 10.0609L1789.47 11.3436L1788.18 20.1319L1786.9 11.3436L1778.12 10.0609L1786.9 8.77828L1788.18 0Z" fill="white"/>
<path opacity="0.2" d="M1849.5 0L1850.78 8.77828L1859.56 10.0609L1850.78 11.3436L1849.5 20.1319L1848.22 11.3436L1839.43 10.0609L1848.22 8.77828L1849.5 0Z" fill="white"/>
<path opacity="0.2" d="M1910.81 0L1912.09 8.77828L1920.88 10.0609L1912.09 11.3436L1910.81 20.1319L1909.54 11.3436L1900.75 10.0609L1909.54 8.77828L1910.81 0Z" fill="white"/>
<path opacity="0.2" d="M10.0609 44.2321L11.3436 53.0103L20.1319 54.293L11.3436 55.5757L10.0609 64.354L8.77828 55.5757L0 54.293L8.77828 53.0103L10.0609 44.2321Z" fill="white"/>
<path opacity="0.2" d="M71.3786 44.2321L72.6613 53.0103L81.4396 54.293L72.6613 55.5757L71.3786 64.354L70.096 55.5757L61.3177 54.293L70.096 53.0103L71.3786 44.2321Z" fill="white"/>
<path opacity="0.2" d="M132.696 44.2321L133.979 53.0103L142.757 54.293L133.979 55.5757L132.696 64.354L131.414 55.5757L122.625 54.293L131.414 53.0103L132.696 44.2321Z" fill="white"/>
<path opacity="0.2" d="M194.004 44.2321L195.287 53.0103L204.075 54.293L195.287 55.5757L194.004 64.354L192.721 55.5757L183.943 54.293L192.721 53.0103L194.004 44.2321Z" fill="white"/>
<path opacity="0.2" d="M255.322 44.2321L256.604 53.0103L265.383 54.293L256.604 55.5757L255.322 64.354L254.039 55.5757L245.261 54.293L254.039 53.0103L255.322 44.2321Z" fill="white"/>
<path opacity="0.2" d="M316.639 44.2321L317.922 53.0103L326.7 54.293L317.922 55.5757L316.639 64.354L315.357 55.5757L306.568 54.293L315.357 53.0103L316.639 44.2321Z" fill="white"/>
<path opacity="0.2" d="M377.947 44.2321L379.23 53.0103L388.018 54.293L379.23 55.5757L377.947 64.354L376.664 55.5757L367.886 54.293L376.664 53.0103L377.947 44.2321Z" fill="white"/>
<path opacity="0.2" d="M439.265 44.2321L440.547 53.0103L449.326 54.293L440.547 55.5757L439.265 64.354L437.982 55.5757L429.204 54.293L437.982 53.0103L439.265 44.2321Z" fill="white"/>
<path opacity="0.2" d="M500.582 44.2321L501.865 53.0103L510.643 54.293L501.865 55.5757L500.582 64.354L499.3 55.5757L490.511 54.293L499.3 53.0103L500.582 44.2321Z" fill="white"/>
<path opacity="0.2" d="M561.89 44.2321L563.173 53.0103L571.961 54.293L563.173 55.5757L561.89 64.354L560.617 55.5757L551.829 54.293L560.617 53.0103L561.89 44.2321Z" fill="white"/>
<path opacity="0.2" d="M623.208 44.2321L624.49 53.0103L633.269 54.293L624.49 55.5757L623.208 64.354L621.925 55.5757L613.147 54.293L621.925 53.0103L623.208 44.2321Z" fill="white"/>
<path opacity="0.2" d="M684.525 44.2321L685.808 53.0103L694.586 54.293L685.808 55.5757L684.525 64.354L683.243 55.5757L674.454 54.293L683.243 53.0103L684.525 44.2321Z" fill="white"/>
<path opacity="0.2" d="M745.833 44.2321L747.116 53.0103L755.904 54.293L747.116 55.5757L745.833 64.354L744.56 55.5757L735.772 54.293L744.56 53.0103L745.833 44.2321Z" fill="white"/>
<path opacity="0.2" d="M807.151 44.2321L808.433 53.0103L817.212 54.293L808.433 55.5757L807.151 64.354L805.868 55.5757L797.09 54.293L805.868 53.0103L807.151 44.2321Z" fill="white"/>
<path opacity="0.2" d="M868.468 44.2321L869.751 53.0103L878.529 54.293L869.751 55.5757L868.468 64.354L867.186 55.5757L858.408 54.293L867.186 53.0103L868.468 44.2321Z" fill="white"/>
<path opacity="0.2" d="M929.776 44.2321L931.059 53.0103L939.847 54.293L931.059 55.5757L929.776 64.354L928.504 55.5757L919.715 54.293L928.504 53.0103L929.776 44.2321Z" fill="white"/>
<path opacity="0.2" d="M991.094 44.2321L992.377 53.0103L1001.15 54.293L992.377 55.5757L991.094 64.354L989.811 55.5757L981.033 54.293L989.811 53.0103L991.094 44.2321Z" fill="white"/>
<path opacity="0.2" d="M1052.41 44.2321L1053.69 53.0103L1062.47 54.293L1053.69 55.5757L1052.41 64.354L1051.13 55.5757L1042.35 54.293L1051.13 53.0103L1052.41 44.2321Z" fill="white"/>
<path opacity="0.2" d="M1113.73 44.2321L1115 53.0103L1123.79 54.293L1115 55.5757L1113.73 64.354L1112.45 55.5757L1103.66 54.293L1112.45 53.0103L1113.73 44.2321Z" fill="white"/>
<path opacity="0.2" d="M1175.04 44.2321L1176.32 53.0103L1185.11 54.293L1176.32 55.5757L1175.04 64.354L1173.75 55.5757L1164.98 54.293L1173.75 53.0103L1175.04 44.2321Z" fill="white"/>
<path opacity="0.2" d="M1236.35 44.2321L1237.64 53.0103L1246.42 54.293L1237.64 55.5757L1236.35 64.354L1235.07 55.5757L1226.29 54.293L1235.07 53.0103L1236.35 44.2321Z" fill="white"/>
<path opacity="0.2" d="M1297.67 44.2321L1298.94 53.0103L1307.73 54.293L1298.94 55.5757L1297.67 64.354L1296.39 55.5757L1287.6 54.293L1296.39 53.0103L1297.67 44.2321Z" fill="white"/>
<path opacity="0.2" d="M1358.98 44.2321L1360.26 53.0103L1369.05 54.293L1360.26 55.5757L1358.98 64.354L1357.7 55.5757L1348.92 54.293L1357.7 53.0103L1358.98 44.2321Z" fill="white"/>
<path opacity="0.2" d="M1420.3 44.2321L1421.58 53.0103L1430.36 54.293L1421.58 55.5757L1420.3 64.354L1419.01 55.5757L1410.24 54.293L1419.01 53.0103L1420.3 44.2321Z" fill="white"/>
<path opacity="0.2" d="M1481.62 44.2321L1482.9 53.0103L1491.68 54.293L1482.9 55.5757L1481.62 64.354L1480.33 55.5757L1471.54 54.293L1480.33 53.0103L1481.62 44.2321Z" fill="white"/>
<path opacity="0.2" d="M1542.92 44.2321L1544.21 53.0103L1552.99 54.293L1544.21 55.5757L1542.92 64.354L1541.64 55.5757L1532.86 54.293L1541.64 53.0103L1542.92 44.2321Z" fill="white"/>
<path opacity="0.2" d="M1604.24 44.2321L1605.52 53.0103L1614.3 54.293L1605.52 55.5757L1604.24 64.354L1602.96 55.5757L1594.18 54.293L1602.96 53.0103L1604.24 44.2321Z" fill="white"/>
<path opacity="0.2" d="M1665.56 44.2321L1666.84 53.0103L1675.62 54.293L1666.84 55.5757L1665.56 64.354L1664.28 55.5757L1655.49 54.293L1664.28 53.0103L1665.56 44.2321Z" fill="white"/>
<path opacity="0.2" d="M1726.87 44.2321L1728.15 53.0103L1736.94 54.293L1728.15 55.5757L1726.87 64.354L1725.58 55.5757L1716.81 54.293L1725.58 53.0103L1726.87 44.2321Z" fill="white"/>
<path opacity="0.2" d="M1788.18 44.2321L1789.47 53.0103L1798.24 54.293L1789.47 55.5757L1788.18 64.354L1786.9 55.5757L1778.12 54.293L1786.9 53.0103L1788.18 44.2321Z" fill="white"/>
<path opacity="0.2" d="M1849.5 44.2321L1850.78 53.0103L1859.56 54.293L1850.78 55.5757L1849.5 64.354L1848.22 55.5757L1839.43 54.293L1848.22 53.0103L1849.5 44.2321Z" fill="white"/>
<path opacity="0.2" d="M1910.81 44.2321L1912.09 53.0103L1920.88 54.293L1912.09 55.5757L1910.81 64.354L1909.54 55.5757L1900.75 54.293L1909.54 53.0103L1910.81 44.2321Z" fill="white"/>
<path opacity="0.2" d="M10.0609 88.4542L11.3436 97.2325L20.1319 98.5152L11.3436 99.7978L10.0609 108.586L8.77828 99.7978L0 98.5152L8.77828 97.2325L10.0609 88.4542Z" fill="white"/>
<path opacity="0.2" d="M71.3786 88.4542L72.6613 97.2325L81.4396 98.5152L72.6613 99.7978L71.3786 108.586L70.096 99.7978L61.3177 98.5152L70.096 97.2325L71.3786 88.4542Z" fill="white"/>
<path opacity="0.2" d="M132.696 88.4542L133.979 97.2325L142.757 98.5152L133.979 99.7978L132.696 108.586L131.414 99.7978L122.625 98.5152L131.414 97.2325L132.696 88.4542Z" fill="white"/>
<path opacity="0.2" d="M194.004 88.4542L195.287 97.2325L204.075 98.5152L195.287 99.7978L194.004 108.586L192.721 99.7978L183.943 98.5152L192.721 97.2325L194.004 88.4542Z" fill="white"/>
<path opacity="0.2" d="M255.322 88.4542L256.604 97.2325L265.383 98.5152L256.604 99.7978L255.322 108.586L254.039 99.7978L245.261 98.5152L254.039 97.2325L255.322 88.4542Z" fill="white"/>
<path opacity="0.2" d="M316.639 88.4542L317.922 97.2325L326.7 98.5152L317.922 99.7978L316.639 108.586L315.357 99.7978L306.568 98.5152L315.357 97.2325L316.639 88.4542Z" fill="white"/>
<path opacity="0.2" d="M377.947 88.4542L379.23 97.2325L388.018 98.5152L379.23 99.7978L377.947 108.586L376.664 99.7978L367.886 98.5152L376.664 97.2325L377.947 88.4542Z" fill="white"/>
<path opacity="0.2" d="M439.265 88.4542L440.547 97.2325L449.326 98.5152L440.547 99.7978L439.265 108.586L437.982 99.7978L429.204 98.5152L437.982 97.2325L439.265 88.4542Z" fill="white"/>
<path opacity="0.2" d="M500.582 88.4542L501.865 97.2325L510.643 98.5152L501.865 99.7978L500.582 108.586L499.3 99.7978L490.511 98.5152L499.3 97.2325L500.582 88.4542Z" fill="white"/>
<path opacity="0.2" d="M561.89 88.4542L563.173 97.2325L571.961 98.5152L563.173 99.7978L561.89 108.586L560.617 99.7978L551.829 98.5152L560.617 97.2325L561.89 88.4542Z" fill="white"/>
<path opacity="0.2" d="M623.208 88.4542L624.49 97.2325L633.269 98.5152L624.49 99.7978L623.208 108.586L621.925 99.7978L613.147 98.5152L621.925 97.2325L623.208 88.4542Z" fill="white"/>
<path opacity="0.2" d="M684.525 88.4542L685.808 97.2325L694.586 98.5152L685.808 99.7978L684.525 108.586L683.243 99.7978L674.454 98.5152L683.243 97.2325L684.525 88.4542Z" fill="white"/>
<path opacity="0.2" d="M745.833 88.4542L747.116 97.2325L755.904 98.5152L747.116 99.7978L745.833 108.586L744.56 99.7978L735.772 98.5152L744.56 97.2325L745.833 88.4542Z" fill="white"/>
<path opacity="0.2" d="M807.151 88.4542L808.433 97.2325L817.212 98.5152L808.433 99.7978L807.151 108.586L805.868 99.7978L797.09 98.5152L805.868 97.2325L807.151 88.4542Z" fill="white"/>
<path opacity="0.2" d="M868.468 88.4542L869.751 97.2325L878.529 98.5152L869.751 99.7978L868.468 108.586L867.186 99.7978L858.408 98.5152L867.186 97.2325L868.468 88.4542Z" fill="white"/>
<path opacity="0.2" d="M929.776 88.4542L931.059 97.2325L939.847 98.5152L931.059 99.7978L929.776 108.586L928.504 99.7978L919.715 98.5152L928.504 97.2325L929.776 88.4542Z" fill="white"/>
<path opacity="0.2" d="M991.094 88.4542L992.377 97.2325L1001.15 98.5152L992.377 99.7978L991.094 108.586L989.811 99.7978L981.033 98.5152L989.811 97.2325L991.094 88.4542Z" fill="white"/>
<path opacity="0.2" d="M1052.41 88.4542L1053.69 97.2325L1062.47 98.5152L1053.69 99.7978L1052.41 108.586L1051.13 99.7978L1042.35 98.5152L1051.13 97.2325L1052.41 88.4542Z" fill="white"/>
<path opacity="0.2" d="M1113.73 88.4542L1115 97.2325L1123.79 98.5152L1115 99.7978L1113.73 108.586L1112.45 99.7978L1103.66 98.5152L1112.45 97.2325L1113.73 88.4542Z" fill="white"/>
<path opacity="0.2" d="M1175.04 88.4542L1176.32 97.2325L1185.11 98.5152L1176.32 99.7978L1175.04 108.586L1173.75 99.7978L1164.98 98.5152L1173.75 97.2325L1175.04 88.4542Z" fill="white"/>
<path opacity="0.2" d="M1236.35 88.4542L1237.64 97.2325L1246.42 98.5152L1237.64 99.7978L1236.35 108.586L1235.07 99.7978L1226.29 98.5152L1235.07 97.2325L1236.35 88.4542Z" fill="white"/>
<path opacity="0.2" d="M1297.67 88.4542L1298.94 97.2325L1307.73 98.5152L1298.94 99.7978L1297.67 108.586L1296.39 99.7978L1287.6 98.5152L1296.39 97.2325L1297.67 88.4542Z" fill="white"/>
<path opacity="0.2" d="M1358.98 88.4542L1360.26 97.2325L1369.05 98.5152L1360.26 99.7978L1358.98 108.586L1357.7 99.7978L1348.92 98.5152L1357.7 97.2325L1358.98 88.4542Z" fill="white"/>
<path opacity="0.2" d="M1420.3 88.4542L1421.58 97.2325L1430.36 98.5152L1421.58 99.7978L1420.3 108.586L1419.01 99.7978L1410.24 98.5152L1419.01 97.2325L1420.3 88.4542Z" fill="white"/>
<path opacity="0.2" d="M1481.62 88.4542L1482.9 97.2325L1491.68 98.5152L1482.9 99.7978L1481.62 108.586L1480.33 99.7978L1471.54 98.5152L1480.33 97.2325L1481.62 88.4542Z" fill="white"/>
<path opacity="0.2" d="M1542.92 88.4542L1544.21 97.2325L1552.99 98.5152L1544.21 99.7978L1542.92 108.586L1541.64 99.7978L1532.86 98.5152L1541.64 97.2325L1542.92 88.4542Z" fill="white"/>
<path opacity="0.2" d="M1604.24 88.4542L1605.52 97.2325L1614.3 98.5152L1605.52 99.7978L1604.24 108.586L1602.96 99.7978L1594.18 98.5152L1602.96 97.2325L1604.24 88.4542Z" fill="white"/>
<path opacity="0.2" d="M1665.56 88.4542L1666.84 97.2325L1675.62 98.5152L1666.84 99.7978L1665.56 108.586L1664.28 99.7978L1655.49 98.5152L1664.28 97.2325L1665.56 88.4542Z" fill="white"/>
<path opacity="0.2" d="M1726.87 88.4542L1728.15 97.2325L1736.94 98.5152L1728.15 99.7978L1726.87 108.586L1725.58 99.7978L1716.81 98.5152L1725.58 97.2325L1726.87 88.4542Z" fill="white"/>
<path opacity="0.2" d="M1788.18 88.4542L1789.47 97.2325L1798.24 98.5152L1789.47 99.7978L1788.18 108.586L1786.9 99.7978L1778.12 98.5152L1786.9 97.2325L1788.18 88.4542Z" fill="white"/>
<path opacity="0.2" d="M1849.5 88.4542L1850.78 97.2325L1859.56 98.5152L1850.78 99.7978L1849.5 108.586L1848.22 99.7978L1839.43 98.5152L1848.22 97.2325L1849.5 88.4542Z" fill="white"/>
<path opacity="0.2" d="M1910.81 88.4542L1912.09 97.2325L1920.88 98.5152L1912.09 99.7978L1910.81 108.586L1909.54 99.7978L1900.75 98.5152L1909.54 97.2325L1910.81 88.4542Z" fill="white"/>
<path opacity="0.2" d="M10.0609 132.686L11.3436 141.465L20.1319 142.747L11.3436 144.03L10.0609 152.808L8.77828 144.03L0 142.747L8.77828 141.465L10.0609 132.686Z" fill="white"/>
<path opacity="0.2" d="M71.3786 132.686L72.6613 141.465L81.4396 142.747L72.6613 144.03L71.3786 152.808L70.096 144.03L61.3177 142.747L70.096 141.465L71.3786 132.686Z" fill="white"/>
<path opacity="0.2" d="M132.696 132.686L133.979 141.465L142.757 142.747L133.979 144.03L132.696 152.808L131.414 144.03L122.625 142.747L131.414 141.465L132.696 132.686Z" fill="white"/>
<path opacity="0.2" d="M194.004 132.686L195.287 141.465L204.075 142.747L195.287 144.03L194.004 152.808L192.721 144.03L183.943 142.747L192.721 141.465L194.004 132.686Z" fill="white"/>
<path opacity="0.2" d="M255.322 132.686L256.604 141.465L265.383 142.747L256.604 144.03L255.322 152.808L254.039 144.03L245.261 142.747L254.039 141.465L255.322 132.686Z" fill="white"/>
<path opacity="0.2" d="M316.639 132.686L317.922 141.465L326.7 142.747L317.922 144.03L316.639 152.808L315.357 144.03L306.568 142.747L315.357 141.465L316.639 132.686Z" fill="white"/>
<path opacity="0.2" d="M377.947 132.686L379.23 141.465L388.018 142.747L379.23 144.03L377.947 152.808L376.664 144.03L367.886 142.747L376.664 141.465L377.947 132.686Z" fill="white"/>
<path opacity="0.2" d="M439.265 132.686L440.547 141.465L449.326 142.747L440.547 144.03L439.265 152.808L437.982 144.03L429.204 142.747L437.982 141.465L439.265 132.686Z" fill="white"/>
<path opacity="0.2" d="M500.582 132.686L501.865 141.465L510.643 142.747L501.865 144.03L500.582 152.808L499.3 144.03L490.511 142.747L499.3 141.465L500.582 132.686Z" fill="white"/>
<path opacity="0.2" d="M561.89 132.686L563.173 141.465L571.961 142.747L563.173 144.03L561.89 152.808L560.617 144.03L551.829 142.747L560.617 141.465L561.89 132.686Z" fill="white"/>
<path opacity="0.2" d="M623.208 132.686L624.49 141.465L633.269 142.747L624.49 144.03L623.208 152.808L621.925 144.03L613.147 142.747L621.925 141.465L623.208 132.686Z" fill="white"/>
<path opacity="0.2" d="M684.525 132.686L685.808 141.465L694.586 142.747L685.808 144.03L684.525 152.808L683.243 144.03L674.454 142.747L683.243 141.465L684.525 132.686Z" fill="white"/>
<path opacity="0.2" d="M745.833 132.686L747.116 141.465L755.904 142.747L747.116 144.03L745.833 152.808L744.56 144.03L735.772 142.747L744.56 141.465L745.833 132.686Z" fill="white"/>
<path opacity="0.2" d="M807.151 132.686L808.433 141.465L817.212 142.747L808.433 144.03L807.151 152.808L805.868 144.03L797.09 142.747L805.868 141.465L807.151 132.686Z" fill="white"/>
<path opacity="0.2" d="M868.468 132.686L869.751 141.465L878.529 142.747L869.751 144.03L868.468 152.808L867.186 144.03L858.408 142.747L867.186 141.465L868.468 132.686Z" fill="white"/>
<path opacity="0.2" d="M929.776 132.686L931.059 141.465L939.847 142.747L931.059 144.03L929.776 152.808L928.504 144.03L919.715 142.747L928.504 141.465L929.776 132.686Z" fill="white"/>
<path opacity="0.2" d="M991.094 132.686L992.377 141.465L1001.15 142.747L992.377 144.03L991.094 152.808L989.811 144.03L981.033 142.747L989.811 141.465L991.094 132.686Z" fill="white"/>
<path opacity="0.2" d="M1052.41 132.686L1053.69 141.465L1062.47 142.747L1053.69 144.03L1052.41 152.808L1051.13 144.03L1042.35 142.747L1051.13 141.465L1052.41 132.686Z" fill="white"/>
<path opacity="0.2" d="M1113.73 132.686L1115 141.465L1123.79 142.747L1115 144.03L1113.73 152.808L1112.45 144.03L1103.66 142.747L1112.45 141.465L1113.73 132.686Z" fill="white"/>
<path opacity="0.2" d="M1175.04 132.686L1176.32 141.465L1185.11 142.747L1176.32 144.03L1175.04 152.808L1173.75 144.03L1164.98 142.747L1173.75 141.465L1175.04 132.686Z" fill="white"/>
<path opacity="0.2" d="M1236.35 132.686L1237.64 141.465L1246.42 142.747L1237.64 144.03L1236.35 152.808L1235.07 144.03L1226.29 142.747L1235.07 141.465L1236.35 132.686Z" fill="white"/>
<path opacity="0.2" d="M1297.67 132.686L1298.94 141.465L1307.73 142.747L1298.94 144.03L1297.67 152.808L1296.39 144.03L1287.6 142.747L1296.39 141.465L1297.67 132.686Z" fill="white"/>
<path opacity="0.2" d="M1358.98 132.686L1360.26 141.465L1369.05 142.747L1360.26 144.03L1358.98 152.808L1357.7 144.03L1348.92 142.747L1357.7 141.465L1358.98 132.686Z" fill="white"/>
<path opacity="0.2" d="M1420.3 132.686L1421.58 141.465L1430.36 142.747L1421.58 144.03L1420.3 152.808L1419.01 144.03L1410.24 142.747L1419.01 141.465L1420.3 132.686Z" fill="white"/>
<path opacity="0.2" d="M1481.62 132.686L1482.9 141.465L1491.68 142.747L1482.9 144.03L1481.62 152.808L1480.33 144.03L1471.54 142.747L1480.33 141.465L1481.62 132.686Z" fill="white"/>
<path opacity="0.2" d="M1542.92 132.686L1544.21 141.465L1552.99 142.747L1544.21 144.03L1542.92 152.808L1541.64 144.03L1532.86 142.747L1541.64 141.465L1542.92 132.686Z" fill="white"/>
<path opacity="0.2" d="M1604.24 132.686L1605.52 141.465L1614.3 142.747L1605.52 144.03L1604.24 152.808L1602.96 144.03L1594.18 142.747L1602.96 141.465L1604.24 132.686Z" fill="white"/>
<path opacity="0.2" d="M1665.56 132.686L1666.84 141.465L1675.62 142.747L1666.84 144.03L1665.56 152.808L1664.28 144.03L1655.49 142.747L1664.28 141.465L1665.56 132.686Z" fill="white"/>
<path opacity="0.2" d="M1726.87 132.686L1728.15 141.465L1736.94 142.747L1728.15 144.03L1726.87 152.808L1725.58 144.03L1716.81 142.747L1725.58 141.465L1726.87 132.686Z" fill="white"/>
<path opacity="0.2" d="M1788.18 132.686L1789.47 141.465L1798.24 142.747L1789.47 144.03L1788.18 152.808L1786.9 144.03L1778.12 142.747L1786.9 141.465L1788.18 132.686Z" fill="white"/>
<path opacity="0.2" d="M1849.5 132.686L1850.78 141.465L1859.56 142.747L1850.78 144.03L1849.5 152.808L1848.22 144.03L1839.43 142.747L1848.22 141.465L1849.5 132.686Z" fill="white"/>
<path opacity="0.2" d="M1910.81 132.686L1912.09 141.465L1920.88 142.747L1912.09 144.03L1910.81 152.808L1909.54 144.03L1900.75 142.747L1909.54 141.465L1910.81 132.686Z" fill="white"/>
<path opacity="0.2" d="M10.0609 176.908L11.3436 185.697L20.1319 186.969L11.3436 188.252L10.0609 197.04L8.77828 188.252L0 186.969L8.77828 185.697L10.0609 176.908Z" fill="white"/>
<path opacity="0.2" d="M71.3786 176.908L72.6613 185.697L81.4396 186.969L72.6613 188.252L71.3786 197.04L70.096 188.252L61.3177 186.969L70.096 185.697L71.3786 176.908Z" fill="white"/>
<path opacity="0.2" d="M132.696 176.908L133.979 185.697L142.757 186.969L133.979 188.252L132.696 197.04L131.414 188.252L122.625 186.969L131.414 185.697L132.696 176.908Z" fill="white"/>
<path opacity="0.2" d="M194.004 176.908L195.287 185.697L204.075 186.969L195.287 188.252L194.004 197.04L192.721 188.252L183.943 186.969L192.721 185.697L194.004 176.908Z" fill="white"/>
<path opacity="0.2" d="M255.322 176.908L256.604 185.697L265.383 186.969L256.604 188.252L255.322 197.04L254.039 188.252L245.261 186.969L254.039 185.697L255.322 176.908Z" fill="white"/>
<path opacity="0.2" d="M316.639 176.908L317.922 185.697L326.7 186.969L317.922 188.252L316.639 197.04L315.357 188.252L306.568 186.969L315.357 185.697L316.639 176.908Z" fill="white"/>
<path opacity="0.2" d="M377.947 176.908L379.23 185.697L388.018 186.969L379.23 188.252L377.947 197.04L376.664 188.252L367.886 186.969L376.664 185.697L377.947 176.908Z" fill="white"/>
<path opacity="0.2" d="M439.265 176.908L440.547 185.697L449.326 186.969L440.547 188.252L439.265 197.04L437.982 188.252L429.204 186.969L437.982 185.697L439.265 176.908Z" fill="white"/>
<path opacity="0.2" d="M500.582 176.908L501.865 185.697L510.643 186.969L501.865 188.252L500.582 197.04L499.3 188.252L490.511 186.969L499.3 185.697L500.582 176.908Z" fill="white"/>
<path opacity="0.2" d="M561.89 176.908L563.173 185.697L571.961 186.969L563.173 188.252L561.89 197.04L560.617 188.252L551.829 186.969L560.617 185.697L561.89 176.908Z" fill="white"/>
<path opacity="0.2" d="M623.208 176.908L624.49 185.697L633.269 186.969L624.49 188.252L623.208 197.04L621.925 188.252L613.147 186.969L621.925 185.697L623.208 176.908Z" fill="white"/>
<path opacity="0.2" d="M684.525 176.908L685.808 185.697L694.586 186.969L685.808 188.252L684.525 197.04L683.243 188.252L674.454 186.969L683.243 185.697L684.525 176.908Z" fill="white"/>
<path opacity="0.2" d="M745.833 176.908L747.116 185.697L755.904 186.969L747.116 188.252L745.833 197.04L744.56 188.252L735.772 186.969L744.56 185.697L745.833 176.908Z" fill="white"/>
<path opacity="0.2" d="M807.151 176.908L808.433 185.697L817.212 186.969L808.433 188.252L807.151 197.04L805.868 188.252L797.09 186.969L805.868 185.697L807.151 176.908Z" fill="white"/>
<path opacity="0.2" d="M868.468 176.908L869.751 185.697L878.529 186.969L869.751 188.252L868.468 197.04L867.186 188.252L858.408 186.969L867.186 185.697L868.468 176.908Z" fill="white"/>
<path opacity="0.2" d="M929.776 176.908L931.059 185.697L939.847 186.969L931.059 188.252L929.776 197.04L928.504 188.252L919.715 186.969L928.504 185.697L929.776 176.908Z" fill="white"/>
<path opacity="0.2" d="M991.094 176.908L992.377 185.697L1001.15 186.969L992.377 188.252L991.094 197.04L989.811 188.252L981.033 186.969L989.811 185.697L991.094 176.908Z" fill="white"/>
<path opacity="0.2" d="M1052.41 176.908L1053.69 185.697L1062.47 186.969L1053.69 188.252L1052.41 197.04L1051.13 188.252L1042.35 186.969L1051.13 185.697L1052.41 176.908Z" fill="white"/>
<path opacity="0.2" d="M1113.73 176.908L1115 185.697L1123.79 186.969L1115 188.252L1113.73 197.04L1112.45 188.252L1103.66 186.969L1112.45 185.697L1113.73 176.908Z" fill="white"/>
<path opacity="0.2" d="M1175.04 176.908L1176.32 185.697L1185.11 186.969L1176.32 188.252L1175.04 197.04L1173.75 188.252L1164.98 186.969L1173.75 185.697L1175.04 176.908Z" fill="white"/>
<path opacity="0.2" d="M1236.35 176.908L1237.64 185.697L1246.42 186.969L1237.64 188.252L1236.35 197.04L1235.07 188.252L1226.29 186.969L1235.07 185.697L1236.35 176.908Z" fill="white"/>
<path opacity="0.2" d="M1297.67 176.908L1298.94 185.697L1307.73 186.969L1298.94 188.252L1297.67 197.04L1296.39 188.252L1287.6 186.969L1296.39 185.697L1297.67 176.908Z" fill="white"/>
<path opacity="0.2" d="M1358.98 176.908L1360.26 185.697L1369.05 186.969L1360.26 188.252L1358.98 197.04L1357.7 188.252L1348.92 186.969L1357.7 185.697L1358.98 176.908Z" fill="white"/>
<path opacity="0.2" d="M1420.3 176.908L1421.58 185.697L1430.36 186.969L1421.58 188.252L1420.3 197.04L1419.01 188.252L1410.24 186.969L1419.01 185.697L1420.3 176.908Z" fill="white"/>
<path opacity="0.2" d="M1481.62 176.908L1482.9 185.697L1491.68 186.969L1482.9 188.252L1481.62 197.04L1480.33 188.252L1471.54 186.969L1480.33 185.697L1481.62 176.908Z" fill="white"/>
<path opacity="0.2" d="M1542.92 176.908L1544.21 185.697L1552.99 186.969L1544.21 188.252L1542.92 197.04L1541.64 188.252L1532.86 186.969L1541.64 185.697L1542.92 176.908Z" fill="white"/>
<path opacity="0.2" d="M1604.24 176.908L1605.52 185.697L1614.3 186.969L1605.52 188.252L1604.24 197.04L1602.96 188.252L1594.18 186.969L1602.96 185.697L1604.24 176.908Z" fill="white"/>
<path opacity="0.2" d="M1665.56 176.908L1666.84 185.697L1675.62 186.969L1666.84 188.252L1665.56 197.04L1664.28 188.252L1655.49 186.969L1664.28 185.697L1665.56 176.908Z" fill="white"/>
<path opacity="0.2" d="M1726.87 176.908L1728.15 185.697L1736.94 186.969L1728.15 188.252L1726.87 197.04L1725.58 188.252L1716.81 186.969L1725.58 185.697L1726.87 176.908Z" fill="white"/>
<path opacity="0.2" d="M1788.18 176.908L1789.47 185.697L1798.24 186.969L1789.47 188.252L1788.18 197.04L1786.9 188.252L1778.12 186.969L1786.9 185.697L1788.18 176.908Z" fill="white"/>
<path opacity="0.2" d="M1849.5 176.908L1850.78 185.697L1859.56 186.969L1850.78 188.252L1849.5 197.04L1848.22 188.252L1839.43 186.969L1848.22 185.697L1849.5 176.908Z" fill="white"/>
<path opacity="0.2" d="M1910.81 176.908L1912.09 185.697L1920.88 186.969L1912.09 188.252L1910.81 197.04L1909.54 188.252L1900.75 186.969L1909.54 185.697L1910.81 176.908Z" fill="white"/>
<path opacity="0.2" d="M10.0609 221.141L11.3436 229.919L20.1319 231.201L11.3436 232.484L10.0609 241.262L8.77828 232.484L0 231.201L8.77828 229.919L10.0609 221.141Z" fill="white"/>
<path opacity="0.2" d="M71.3786 221.141L72.6613 229.919L81.4396 231.201L72.6613 232.484L71.3786 241.262L70.096 232.484L61.3177 231.201L70.096 229.919L71.3786 221.141Z" fill="white"/>
<path opacity="0.2" d="M132.696 221.141L133.979 229.919L142.757 231.201L133.979 232.484L132.696 241.262L131.414 232.484L122.625 231.201L131.414 229.919L132.696 221.141Z" fill="white"/>
<path opacity="0.2" d="M194.004 221.141L195.287 229.919L204.075 231.201L195.287 232.484L194.004 241.262L192.721 232.484L183.943 231.201L192.721 229.919L194.004 221.141Z" fill="white"/>
<path opacity="0.2" d="M255.322 221.141L256.604 229.919L265.383 231.201L256.604 232.484L255.322 241.262L254.039 232.484L245.261 231.201L254.039 229.919L255.322 221.141Z" fill="white"/>
<path opacity="0.2" d="M316.639 221.141L317.922 229.919L326.7 231.201L317.922 232.484L316.639 241.262L315.357 232.484L306.568 231.201L315.357 229.919L316.639 221.141Z" fill="white"/>
<path opacity="0.2" d="M377.947 221.141L379.23 229.919L388.018 231.201L379.23 232.484L377.947 241.262L376.664 232.484L367.886 231.201L376.664 229.919L377.947 221.141Z" fill="white"/>
<path opacity="0.2" d="M439.265 221.141L440.547 229.919L449.326 231.201L440.547 232.484L439.265 241.262L437.982 232.484L429.204 231.201L437.982 229.919L439.265 221.141Z" fill="white"/>
<path opacity="0.2" d="M500.582 221.141L501.865 229.919L510.643 231.201L501.865 232.484L500.582 241.262L499.3 232.484L490.511 231.201L499.3 229.919L500.582 221.141Z" fill="white"/>
<path opacity="0.2" d="M561.89 221.141L563.173 229.919L571.961 231.201L563.173 232.484L561.89 241.262L560.617 232.484L551.829 231.201L560.617 229.919L561.89 221.141Z" fill="white"/>
<path opacity="0.2" d="M623.208 221.141L624.49 229.919L633.269 231.201L624.49 232.484L623.208 241.262L621.925 232.484L613.147 231.201L621.925 229.919L623.208 221.141Z" fill="white"/>
<path opacity="0.2" d="M684.525 221.141L685.808 229.919L694.586 231.201L685.808 232.484L684.525 241.262L683.243 232.484L674.454 231.201L683.243 229.919L684.525 221.141Z" fill="white"/>
<path opacity="0.2" d="M745.833 221.141L747.116 229.919L755.904 231.201L747.116 232.484L745.833 241.262L744.56 232.484L735.772 231.201L744.56 229.919L745.833 221.141Z" fill="white"/>
<path opacity="0.2" d="M807.151 221.141L808.433 229.919L817.212 231.201L808.433 232.484L807.151 241.262L805.868 232.484L797.09 231.201L805.868 229.919L807.151 221.141Z" fill="white"/>
<path opacity="0.2" d="M868.468 221.141L869.751 229.919L878.529 231.201L869.751 232.484L868.468 241.262L867.186 232.484L858.408 231.201L867.186 229.919L868.468 221.141Z" fill="white"/>
<path opacity="0.2" d="M929.776 221.141L931.059 229.919L939.847 231.201L931.059 232.484L929.776 241.262L928.504 232.484L919.715 231.201L928.504 229.919L929.776 221.141Z" fill="white"/>
<path opacity="0.2" d="M991.094 221.141L992.377 229.919L1001.15 231.201L992.377 232.484L991.094 241.262L989.811 232.484L981.033 231.201L989.811 229.919L991.094 221.141Z" fill="white"/>
<path opacity="0.2" d="M1052.41 221.141L1053.69 229.919L1062.47 231.201L1053.69 232.484L1052.41 241.262L1051.13 232.484L1042.35 231.201L1051.13 229.919L1052.41 221.141Z" fill="white"/>
<path opacity="0.2" d="M1113.73 221.141L1115 229.919L1123.79 231.201L1115 232.484L1113.73 241.262L1112.45 232.484L1103.66 231.201L1112.45 229.919L1113.73 221.141Z" fill="white"/>
<path opacity="0.2" d="M1175.04 221.141L1176.32 229.919L1185.11 231.201L1176.32 232.484L1175.04 241.262L1173.75 232.484L1164.98 231.201L1173.75 229.919L1175.04 221.141Z" fill="white"/>
<path opacity="0.2" d="M1236.35 221.141L1237.64 229.919L1246.42 231.201L1237.64 232.484L1236.35 241.262L1235.07 232.484L1226.29 231.201L1235.07 229.919L1236.35 221.141Z" fill="white"/>
<path opacity="0.2" d="M1297.67 221.141L1298.94 229.919L1307.73 231.201L1298.94 232.484L1297.67 241.262L1296.39 232.484L1287.6 231.201L1296.39 229.919L1297.67 221.141Z" fill="white"/>
<path opacity="0.2" d="M1358.98 221.141L1360.26 229.919L1369.05 231.201L1360.26 232.484L1358.98 241.262L1357.7 232.484L1348.92 231.201L1357.7 229.919L1358.98 221.141Z" fill="white"/>
<path opacity="0.2" d="M1420.3 221.141L1421.58 229.919L1430.36 231.201L1421.58 232.484L1420.3 241.262L1419.01 232.484L1410.24 231.201L1419.01 229.919L1420.3 221.141Z" fill="white"/>
<path opacity="0.2" d="M1481.62 221.141L1482.9 229.919L1491.68 231.201L1482.9 232.484L1481.62 241.262L1480.33 232.484L1471.54 231.201L1480.33 229.919L1481.62 221.141Z" fill="white"/>
<path opacity="0.2" d="M1542.92 221.141L1544.21 229.919L1552.99 231.201L1544.21 232.484L1542.92 241.262L1541.64 232.484L1532.86 231.201L1541.64 229.919L1542.92 221.141Z" fill="white"/>
<path opacity="0.2" d="M1604.24 221.141L1605.52 229.919L1614.3 231.201L1605.52 232.484L1604.24 241.262L1602.96 232.484L1594.18 231.201L1602.96 229.919L1604.24 221.141Z" fill="white"/>
<path opacity="0.2" d="M1665.56 221.141L1666.84 229.919L1675.62 231.201L1666.84 232.484L1665.56 241.262L1664.28 232.484L1655.49 231.201L1664.28 229.919L1665.56 221.141Z" fill="white"/>
<path opacity="0.2" d="M1726.87 221.141L1728.15 229.919L1736.94 231.201L1728.15 232.484L1726.87 241.262L1725.58 232.484L1716.81 231.201L1725.58 229.919L1726.87 221.141Z" fill="white"/>
<path opacity="0.2" d="M1788.18 221.141L1789.47 229.919L1798.24 231.201L1789.47 232.484L1788.18 241.262L1786.9 232.484L1778.12 231.201L1786.9 229.919L1788.18 221.141Z" fill="white"/>
<path opacity="0.2" d="M1849.5 221.141L1850.78 229.919L1859.56 231.201L1850.78 232.484L1849.5 241.262L1848.22 232.484L1839.43 231.201L1848.22 229.919L1849.5 221.141Z" fill="white"/>
<path opacity="0.2" d="M1910.81 221.141L1912.09 229.919L1920.88 231.201L1912.09 232.484L1910.81 241.262L1909.54 232.484L1900.75 231.201L1909.54 229.919L1910.81 221.141Z" fill="white"/>
</g>
<defs>
<clipPath id="clip0_41_196">
<rect width="1920.88" height="241.262" fill="white"/>
</clipPath>
</defs>
</svg>
